<?xml version="1.0" encoding="UTF-8" standalone="no"?>
<!-- Created with Inkscape (http://www.inkscape.org/) -->

<svg
   width="67.041748mm"
   height="102.17206mm"
   viewBox="0 0 67.041746 102.17206"
   version="1.1"
   id="svg1"
   xml:space="preserve"
   inkscape:export-filename="LogoCompleto_colorato.svg"
   inkscape:export-xdpi="96"
   inkscape:export-ydpi="96"
   sodipodi:docname="Logo_colorato.svg"
   xmlns:inkscape="http://www.inkscape.org/namespaces/inkscape"
   xmlns:sodipodi="http://sodipodi.sourceforge.net/DTD/sodipodi-0.dtd"
   xmlns="http://www.w3.org/2000/svg"
   xmlns:svg="http://www.w3.org/2000/svg"><sodipodi:namedview
     id="namedview1"
     pagecolor="#ffffff"
     bordercolor="#000000"
     borderopacity="0.25"
     inkscape:showpageshadow="2"
     inkscape:pageopacity="0.0"
     inkscape:pagecheckerboard="0"
     inkscape:deskcolor="#d1d1d1"
     inkscape:document-units="mm"
     showguides="true" /><defs
     id="defs1" /><g
     inkscape:label="Livello 1"
     inkscape:groupmode="layer"
     id="layer1"
     transform="translate(-78.650646,-19.634658)"><path
       style="display:inline;fill:#a14e97;fill-opacity:1;stroke-width:0.657558"
       d="m 125.16224,101.54466 c 2.33398,-2.106381 0.35647,-4.211981 -1.27736,-4.247621 -8.51068,-0.18565 -13.09981,-0.2566 -22.7055,-0.35055 -0.60993,-0.006 -0.53559,-0.33222 0.56024,-2.135029 0.5314,-0.874232 1.22552,-2.661909 4.72295,-8.399518 0.78239,-1.283557 0.16213,-1.194373 2.54738,-1.165138 2.90746,0.03564 3.32568,0.0728 4.92942,0.07935 3.01972,0.01226 3.14675,0.343234 1.72137,-2.056262 -7.16,-12.053175 -9.3082,-17.041645 -10.30577,-19.115591 -0.64105,-1.332737 -0.62496,-1.137845 -0.39527,-1.568556 0.91802,-1.72144 3.4344,-6.264981 5.65024,-10.262937 1.58423,-2.858363 1.51975,-2.76127 4.1406,2.169223 6.53119,12.286798 13.16981,23.876835 19.81706,35.524123 2.52737,4.428444 4.4464,5.63895 0.80925,8.371075 -6.78933,5.099961 -18.64798,10.768351 -10.21461,3.157431 z"
       id="path151319"
       sodipodi:nodetypes="sssssssssssssss" /><path
       d="m 112.10899,19.635952 c -0.27982,0.04493 -0.60828,1.267679 -1.47644,3.645063 -7.13165,19.529295 -28.906297,45.847959 -26.952885,64.855903 0.873425,5.365929 1.391652,4.768847 2.661675,-0.521937 2.604429,-13.147371 10.169029,-23.358718 23.24903,-38.931682 2.4811,-2.953984 2.65615,-4.270762 5.00971,-0.134898 1.26411,2.221383 4.95813,7.378115 6.95576,9.993597 26.56029,34.77519 15.42357,35.649322 14.91006,34.586971 -1.08099,-2.236312 -4.64785,1.535616 -6.54514,3.236457 -3.35435,3.007073 -4.91413,5.201004 -9.18078,9.327924 -9.5219,9.21011 -16.12381,8.48099 -22.246591,6.50035 -10.773471,-3.48505 -15.083686,-16.104323 -17.582968,-25.20944 -0.925076,-3.370134 -1.499442,-3.4438 -1.979276,-0.860997 -1.593355,8.576539 2.974835,32.676837 30.077145,35.492557 21.10208,2.19232 38.39899,-14.79115 36.54814,-35.882482 -1.36583,-15.5642 -26.73836,-42.701148 -32.26255,-62.675235 -0.64758,-2.341462 -0.90507,-3.467091 -1.18489,-3.422151 z"
       style="fill:#00a0dc;fill-opacity:1;stroke-width:0.657558"
       id="path3"
       sodipodi:nodetypes="sscsssssscsssssss" /><path
       d="m 104.55761,66.003073 c 2.03692,3.622554 4.65243,8.33455 5.49036,9.739786 0.62603,1.049844 0.69204,0.778193 0.16657,1.615245 -4.178,6.655167 -8.45233,13.815217 -12.222501,20.205015 -2.76134,4.680021 -2.04179,4.121601 -3.38002,2.909051 -2.76573,-2.505981 -3.49452,-3.353931 -6.06003,-5.662127 -2.072473,-1.864623 -1.855398,-1.187242 -0.2049,-3.98486 7.45123,-12.629949 12.711811,-21.701418 14.509281,-24.698142 1.06305,-1.7723 0.7951,-1.735488 1.70124,-0.123974 z"
       style="fill:#a14e97;fill-opacity:1;stroke-width:0.657558"
       id="path2"
       sodipodi:nodetypes="sssssssss" /></g></svg>
